<?xml version="1.0" encoding="UTF-8"?>
<svg id="Calque_1" data-name="Calque 1" xmlns="http://www.w3.org/2000/svg" viewBox="0 0 591.45 7506.59">
  <defs>
    <style>
      .cls-1 {
        fill: #e95e2e;
      }
    </style>
  </defs>
  <path class="cls-1" d="m107.72,3585.98v-4.42l-9.93-3.28c-.21-1.51-.5-2.99-.87-4.44l7.58-6.73-1.7-4.08-10.03.77c-.77-1.32-1.6-2.59-2.51-3.81l4.9-8.69-2.93-3.3-9.7,4.19c-1.1-.84-2.24-1.63-3.43-2.35l.86-10.42-4.05-1.78-7.01,7.79c-1.56-.43-3.15-.77-4.78-1l-3.55-10.33h-4.42l-3.4,10.31c-1.75.25-3.47.61-5.14,1.08l-7.28-8.09-4.05,1.78.91,10.94c-1.27.8-2.48,1.66-3.65,2.59l.54-.6-10.06-4.34-2.93,3.3,5.19,9.2c-.79,1.07-1.53,2.19-2.21,3.34l-10.62-.81-1.7,4.08,8.02,7.12c-.36,1.42-.64,2.87-.84,4.35v-.46l-10.41,3.43v4.42l10.4,3.58c.19,1.36.44,2.7.76,4.01l-8.33,6.9,1.61,4.12,10.99-.46c.81,1.38,1.69,2.72,2.66,3.99l-4.75,9.47,3.13,3.12,9.57-4.69c1.05.78,2.14,1.52,3.26,2.19l-.37,10.79,4.15,1.53,6.49-7.96c1.53.41,3.09.72,4.69.95l3.75,10.18,4.42-.1,3.09-10.1c1.38-.2,2.73-.46,4.06-.79l6.56,8.05,4.15-1.53-.37-10.75c1.15-.67,2.27-1.4,3.35-2.19l9.48,4.65,3.13-3.12-4.64-9.24c1.04-1.34,2.01-2.74,2.88-4.2l10.65.45,1.61-4.12-7.97-6.61c.38-1.46.67-2.95.88-4.47l9.93-3.41Zm-49.61,30.14c-17.86,0-32.34-14.48-32.34-32.34s14.48-32.34,32.34-32.34,32.34,14.48,32.34,32.34-14.48,32.34-32.34,32.34Z"/>
  <path class="cls-1" d="m148.34,3634.56v-2.21l-4.97-1.64c-.11-.75-.25-1.49-.44-2.22l3.79-3.36-.85-2.04-5.01.38c-.38-.66-.8-1.3-1.26-1.91l2.45-4.34-1.47-1.65-4.85,2.09c-.55-.42-1.12-.81-1.71-1.18l.43-5.21-2.02-.89-3.5,3.9c-.78-.21-1.58-.38-2.39-.5l-1.78-5.17h-2.21l-1.7,5.16c-.88.12-1.74.31-2.57.54l-3.64-4.05-2.02.89.45,5.47c-.63.4-1.24.83-1.82,1.3l.27-.3-5.03-2.17-1.47,1.65,2.59,4.6c-.4.54-.76,1.1-1.1,1.67l-5.31-.41-.85,2.04,4.01,3.56c-.18.71-.32,1.44-.42,2.17v-.23l-5.2,1.72v2.21l5.2,1.79c.09.68.22,1.35.38,2.01l-4.17,3.45.81,2.06,5.49-.23c.4.69.85,1.36,1.33,2l-2.38,4.74,1.56,1.56,4.78-2.35c.52.39,1.07.76,1.63,1.1l-.18,5.4,2.07.76,3.24-3.98c.76.2,1.55.36,2.34.47l1.88,5.09,2.21-.05,1.55-5.05c.69-.1,1.36-.23,2.03-.4l3.28,4.03,2.07-.76-.18-5.38c.58-.34,1.14-.7,1.67-1.09l4.74,2.32,1.56-1.56-2.32-4.62c.52-.67,1-1.37,1.44-2.1l5.33.22.81-2.06-3.99-3.3c.19-.73.33-1.48.44-2.23l4.97-1.71Zm-24.8,15.07c-8.93,0-16.17-7.24-16.17-16.17s7.24-16.17,16.17-16.17,16.17,7.24,16.17,16.17-7.24,16.17-16.17,16.17Z"/>
  <rect class="cls-1" x="-2.19" y="3739.28" width="480.39" height="53.93"/>
  <rect class="cls-1" x="38.65" y="3475.18" width="513.43" height="110.6"/>
  <polygon class="cls-1" points="291.62 1703.43 319.48 1624.37 427.05 1624.16 291.62 1887.14 156.22 1624.16 263.76 1624.25 291.62 1703.43"/>
  <rect class="cls-1" x="35.55" y="1081.35" width="573.73" height="341.51"/>
  <rect class="cls-1" x="-56.67" y="2016.06" width="460.52" height="338.45"/>
  <ellipse class="cls-1" cx="300.16" cy="7289.73" rx="399.22" ry="321.91"/>
  <rect class="cls-1" x="209.49" y="5016.02" width="383.01" height="500.33"/>
  <rect class="cls-1" x="72.99" y="4402.49" width="519.04" height="454.92"/>
  <rect class="cls-1" x="123.7" y="3989.51" width="430.88" height="273.26"/>
  <path class="cls-1" d="m104.85,5090.64v-7.42l-16.67-5.5c-.35-2.53-.83-5.02-1.46-7.45l12.72-11.3-2.85-6.85-16.83,1.29c-1.29-2.21-2.69-4.35-4.22-6.4l8.23-14.58-4.93-5.55-16.29,7.03c-1.85-1.41-3.76-2.74-5.75-3.95l1.45-17.48-6.79-2.98-11.77,13.08c-2.62-.72-5.3-1.28-8.03-1.68l-5.96-17.34h-7.42l-5.71,17.31c-2.95.42-5.83,1.03-8.63,1.81l-12.22-13.59-6.79,2.98,1.52,18.36c-2.12,1.34-4.17,2.79-6.12,4.35l.9-1.01-16.89-7.29-4.93,5.55,8.71,15.44c-1.33,1.8-2.56,3.68-3.71,5.61l-17.83-1.36-2.85,6.85,13.47,11.96c-.61,2.38-1.07,4.82-1.41,7.3v-.78l-17.47,5.77v7.42l17.46,6c.31,2.28.74,4.53,1.28,6.73l-13.98,11.59,2.7,6.91,18.44-.78c1.36,2.32,2.84,4.56,4.46,6.7l-7.98,15.9,5.25,5.24,16.06-7.88c1.76,1.32,3.59,2.54,5.48,3.68l-.62,18.11,6.96,2.56,10.89-13.36c2.57.68,5.19,1.22,7.87,1.59l6.29,17.09,7.42-.16,5.19-16.95c2.31-.33,4.58-.77,6.81-1.33l11.02,13.52,6.96-2.56-.62-18.05c1.94-1.13,3.81-2.36,5.62-3.67l15.92,7.81,5.25-5.24-7.78-15.51c1.75-2.24,3.37-4.6,4.83-7.06l17.88.75,2.7-6.91-13.39-11.09c.63-2.45,1.12-4.95,1.48-7.5l16.67-5.73Zm-83.27,50.59c-29.98,0-54.29-24.31-54.29-54.29s24.31-54.29,54.29-54.29,54.29,24.31,54.29,54.29-24.31,54.29-54.29,54.29Z"/>
  <path class="cls-1" d="m143.07,5209.88v-4.52l-10.16-3.35c-.22-1.54-.51-3.06-.89-4.54l7.75-6.88-1.74-4.17-10.25.78c-.79-1.35-1.64-2.65-2.57-3.9l5.01-8.88-3-3.38-9.92,4.28c-1.12-.86-2.29-1.67-3.5-2.41l.88-10.65-4.14-1.82-7.17,7.97c-1.59-.44-3.23-.78-4.89-1.02l-3.63-10.56h-4.52l-3.48,10.54c-1.79.25-3.55.63-5.26,1.1l-7.44-8.28-4.14,1.82.93,11.18c-1.29.81-2.54,1.7-3.73,2.65l.55-.62-10.29-4.44-3,3.38,5.31,9.4c-.81,1.1-1.56,2.24-2.26,3.42l-10.86-.83-1.74,4.17,8.2,7.28c-.37,1.45-.65,2.94-.86,4.45v-.47l-10.64,3.51v4.52l10.64,3.66c.19,1.39.45,2.76.78,4.1l-8.52,7.06,1.65,4.21,11.23-.47c.83,1.42,1.73,2.78,2.72,4.08l-4.86,9.68,3.2,3.19,9.78-4.8c1.07.8,2.19,1.55,3.34,2.24l-.38,11.03,4.24,1.56,6.63-8.14c1.56.42,3.16.74,4.79.97l3.83,10.41,4.52-.1,3.16-10.32c1.41-.2,2.79-.47,4.15-.81l6.71,8.23,4.24-1.56-.37-11c1.18-.69,2.32-1.44,3.42-2.24l9.7,4.75,3.2-3.19-4.74-9.45c1.07-1.37,2.05-2.8,2.94-4.3l10.89.46,1.65-4.21-8.15-6.76c.39-1.49.68-3.02.9-4.57l10.15-3.49Zm-50.72,30.82c-18.26,0-33.07-14.81-33.07-33.07s14.81-33.07,33.07-33.07,33.07,14.81,33.07,33.07-14.81,33.07-33.07,33.07Z"/>
  <path class="cls-1" d="m652.39,5955.54l-1.25-7.31-17.36-2.63c-.77-2.43-1.66-4.81-2.69-7.1l10.65-13.27-3.96-6.27-16.37,4.09c-1.64-1.96-3.38-3.84-5.23-5.6l5.66-15.75-5.79-4.64-14.88,9.66c-2.06-1.08-4.17-2.07-6.33-2.93l-1.51-17.48-7.2-1.8-9.4,14.87c-2.7-.27-5.44-.38-8.2-.31l-8.79-16.1-7.31,1.25-2.73,18.02c-2.83.9-5.57,1.99-8.21,3.24l-14.33-11.34-6.2,4.08,4.58,17.84c-1.87,1.67-3.64,3.45-5.3,5.31l.72-1.15-17.87-4.35-3.92,6.3,11.18,13.76c-1.01,2-1.91,4.06-2.71,6.16l-17.8,1.65-1.66,7.23,15.29,9.53c-.2,2.45-.25,4.93-.17,7.43l-.13-.77-16.25,8.62,1.25,7.31,18.22,2.99c.69,2.2,1.49,4.34,2.39,6.42l-11.84,13.77,3.83,6.36,18.05-3.86c1.73,2.06,3.57,4.02,5.52,5.85l-5.2,17.01,6.06,4.28,14.51-10.46c1.96,1,3.97,1.9,6.02,2.71l2.43,17.96,7.29,1.36,8.49-15c2.64.24,5.32.33,8.03.25l9.08,15.8,7.28-1.4,2.27-17.58c2.22-.71,4.39-1.53,6.49-2.45l13.13,11.47,6.43-3.7-3.64-17.69c1.72-1.44,3.36-2.96,4.93-4.57l17,5.02,4.3-6.05-10.28-13.99c1.35-2.51,2.55-5.1,3.58-7.77l17.75-2.26,1.51-7.26-15.06-8.69c.21-2.52.27-5.07.2-7.64l15.47-8.45Zm-73.6,63.85c-29.56,5.03-57.6-14.85-62.63-44.41-5.03-29.56,14.85-57.6,44.41-62.63,29.56-5.03,57.6,14.85,62.63,44.41,5.03,29.56-14.85,57.6-44.41,62.63Z"/>
  <rect class="cls-1" x="-1.66" y="5668.58" width="427.49" height="268.52"/>
  <rect class="cls-1" x="-1.56" y="6328.05" width="596.91" height="283.59"/>
  <rect class="cls-1" x="35.35" y="1081.36" width="573.73" height="341.51"/>
</svg>